<?xml version="1.0" encoding="UTF-8"?>
<svg id="Layer_1" data-name="Layer 1" xmlns="http://www.w3.org/2000/svg" viewBox="0 0 253.18 203.87">
  <defs>
    <style>
      .cls-1 {
        fill: #9e9d9e;
        stroke: #9e9d9e;
        stroke-miterlimit: 10;
      }
    </style>
  </defs>
  <rect class="cls-1" x="101.7" y="152.9" width="50.46" height="50.46" rx="25.23" ry="25.23"/>
  <path class="cls-1" d="m151.89,77.21l.27,40.94c0,13.94-11.3,26.15-25.23,26.15h0c-13.94,0-25.23-12.22-25.23-26.15l-.27-40.29c0-12.95-9.48-24.31-22.35-25.73-15.22-1.68-28.11,10.2-28.11,25.08v100.92c0,13.94-11.3,25.23-25.23,25.23h0c-13.94,0-25.23-11.3-25.23-25.23v-100.92c0-8.86,1.52-17.35,4.33-25.24C12.41,30.48,29.47,13.42,50.96,5.84c7.89-2.81,16.38-4.33,25.24-4.33s17.33,1.52,25.22,4.31c9.46,3.34,18.06,8.51,25.37,15.1,9.31,8.37,16.53,19.01,20.77,31.05,2.81,7.89,4.33,16.38,4.33,25.24Z"/>
  <path class="cls-1" d="m252.68,76.01v101.12c0,13.94-11.3,25.23-25.23,25.23h0c-13.94,0-25.23-11.3-25.23-25.23v-100.33c0-13.68-10.63-25.33-24.3-25.81-14.36-.51-26.16,10.98-26.16,25.23,0-8.86-1.52-17.35-4.33-25.24-4.24-12.04-11.45-22.68-20.77-31.05,7.23-6.52,15.74-11.67,25.1-15.01,7.95-2.85,16.51-4.4,25.44-4.4s17.19,1.5,25.02,4.26c21.55,7.56,38.65,24.66,46.21,46.21,2.76,7.84,4.26,16.26,4.26,25.04Z"/>
</svg>